<?xml version="1.0" encoding="utf-8"?>
<!-- Generator: Adobe Illustrator 17.1.0, SVG Export Plug-In . SVG Version: 6.00 Build 0)  -->
<!DOCTYPE svg PUBLIC "-//W3C//DTD SVG 1.1//EN" "http://www.w3.org/Graphics/SVG/1.1/DTD/svg11.dtd">
<svg version="1.1" id="Layer_1" xmlns="http://www.w3.org/2000/svg" xmlns:xlink="http://www.w3.org/1999/xlink" x="0px" y="0px"
	 viewBox="0 0 32 32" enable-background="new 0 0 32 32" xml:space="preserve">
<path fill="#FFFFFF" d="M32,32l-4.6-8.4c1-0.7,2-1.5,2.9-2.4l0.7-0.7l-0.7-0.7c-2.2-2.2-4.9-3.8-7.7-4.8L16,2.9l-6.6,12
	c-2.9,1-5.5,2.6-7.7,4.8l-0.7,0.7l0.7,0.7c0.9,0.9,1.9,1.7,2.9,2.4L0,32H32z M16,7.2l3.9,7c-1.3-0.2-2.6-0.4-3.9-0.4
	c-1.3,0-2.6,0.1-3.9,0.4L16,7.2z M20.8,16.5c-0.4,2.2-2.4,3.9-4.8,3.9s-4.3-1.7-4.8-3.9c1.5-0.4,3.1-0.6,4.8-0.6
	S19.2,16.1,20.8,16.5z M9.3,17.2c0.7,3.1,3.5,5.3,6.7,5.3s6-2.3,6.7-5.3c2,0.8,3.8,1.9,5.4,3.3c-3.3,3-7.6,4.6-12.1,4.6
	c-4.5,0-8.8-1.6-12.1-4.6C5.5,19.1,7.3,17.9,9.3,17.2z M16,27.2c3.4,0,6.7-0.8,9.7-2.4l2.9,5.2H3.5l2.9-5.2
	C9.3,26.3,12.6,27.2,16,27.2z"/>
</svg>
